<svg xmlns="http://www.w3.org/2000/svg" width="20" height="24" viewBox="0 0 20 24" >
<path d="M19.7271 4.01333H14.0625V1.58057C14.0625 1.3655 13.9769 1.15924 13.8245 1.00717C13.6722 0.855089 13.4655 0.769653 13.25 0.769653H6.75C6.53451 0.769653 6.32785 0.855089 6.17548 1.00717C6.0231 1.15924 5.9375 1.3655 5.9375 1.58057V4.01333H0.272851L0.25 6.04063H1.92578L2.94598 21.9549C2.9718 22.3665 3.15372 22.7527 3.45473 23.0352C3.75574 23.3176 4.15325 23.475 4.56641 23.4754H15.4336C15.8465 23.4753 16.2439 23.3184 16.5451 23.0365C16.8463 22.7545 17.0286 22.3687 17.055 21.9575L18.0742 6.04063H19.75L19.7271 4.01333ZM5.9375 20.2317L5.48047 7.25701H7.15625L7.61328 20.2317H5.9375ZM10.8125 20.2317H9.1875V7.25701H10.8125V20.2317ZM12.0312 4.01333H7.96875V2.59422C7.96875 2.54045 7.99015 2.48889 8.02824 2.45087C8.06634 2.41285 8.118 2.39149 8.17188 2.39149H11.8281C11.882 2.39149 11.9337 2.41285 11.9718 2.45087C12.0098 2.48889 12.0312 2.54045 12.0312 2.59422V4.01333ZM14.0625 20.2317H12.3867L12.8438 7.25701H14.5195L14.0625 20.2317Z"/>
</svg>
