<svg xmlns="http://www.w3.org/2000/svg" viewBox="0 0 24 24" fill="none">
<path d="M10.68 1.20001C13.56 1.20001 15.72 1.56001 17.16 2.40001C18.72 3.24001 19.44 4.68001 19.44 6.72001C19.44 7.92001 19.08 9.00001 18.6 9.84001C18.3279 10.2503 17.9745 10.6005 17.5617 10.8688C17.1489 11.1371 16.6854 11.3179 16.2 11.4C16.8859 11.5602 17.5367 11.845 18.12 12.24C18.6 12.6 19.08 13.2 19.44 13.8C19.8155 14.6692 19.98 15.615 19.92 16.56C19.9624 17.427 19.7998 18.2917 19.4453 19.084C19.0909 19.8763 18.5546 20.5738 17.88 21.12C16.1717 22.34 14.0949 22.9334 12 22.8H3.95996V1.20001H10.68ZM11.16 9.72001C12.48 9.72001 13.44 9.60001 13.92 9.12001C14.52 8.76001 14.76 8.04001 14.76 7.32001C14.76 6.48001 14.4 5.88001 13.8 5.52001C13.2 5.16001 12.24 4.92001 10.92 4.92001H8.51996V9.72001H11.16ZM8.51996 13.32V19.2H11.52C12.84 19.2 13.92 18.84 14.4 18.36C15 17.76 15.24 17.16 15.24 16.2C15.2543 15.8373 15.1861 15.4761 15.0406 15.1435C14.8951 14.8109 14.6761 14.5157 14.4 14.28C13.8 13.8 12.84 13.56 11.4 13.56H8.39996L8.51996 13.32Z"/>
</svg>
