<svg width="652" height="85" viewBox="0 0 652 85" fill="none" xmlns="http://www.w3.org/2000/svg">
<path d="M0 83.8482V0H25.8922V31.5007L54.7184 0H81.2708L25.8922 56.4363V83.8482H0ZM55.4519 83.8482L25.8189 43.3638L41.2955 27.9878L84.4981 83.8482H55.4519Z" fill="url(#paint0_linear_344_6)"/>
<path d="M84.2047 83.8482L117.652 0H146.698L179.412 83.8482H153.96L133.642 27.1816C133.055 25.6459 132.566 24.3022 132.175 23.1504C131.833 21.9603 131.515 20.9429 131.221 20.0982H131.001C130.708 20.9429 130.366 21.9411 129.975 23.0928C129.583 24.2446 129.143 25.6075 128.654 27.1816L109.217 83.8482H84.2047ZM103.349 67.2053L106.796 53.8449H156.013L159.754 67.2053H103.349Z" fill="url(#paint1_linear_344_6)"/>
<path d="M184.693 83.8482V0H210.732L237.578 45.7249C238.213 46.9919 238.825 48.3548 239.411 49.8137C240.047 51.2342 240.561 52.5587 240.952 53.7873H241.392C241.294 52.4819 241.245 51.119 241.245 49.6985C241.245 48.278 241.245 46.9151 241.245 45.6098V0H263.25V83.8482H238.018L210.218 37.5474C209.583 36.3957 208.947 35.1671 208.311 33.8618C207.725 32.5181 207.236 31.2319 206.844 30.0034H206.478C206.575 31.3087 206.624 32.5757 206.624 33.8042C206.673 34.9944 206.698 36.2613 206.698 37.605V83.8482H184.693Z" fill="url(#paint2_linear_344_6)"/>
<path d="M271.538 83.8482V72.9641L320.994 16.1247H273.885V0H349.582L349.655 11.46L304.619 68.2995H352.076V83.8482H271.538Z" fill="url(#paint3_linear_344_6)"/>
<path d="M360.217 53.269V0H386.11V56.1484C386.11 61.5617 387.259 65.4009 389.557 67.666C391.855 69.9311 395.156 71.0637 399.459 71.0637C403.664 71.0637 406.892 69.9311 409.141 67.666C411.439 65.4009 412.589 61.5617 412.589 56.1484V0H438.554V53.269C438.554 64.0571 435.156 72.0427 428.359 77.2256C421.61 82.4085 412.075 85 399.752 85C387.088 85 377.332 82.4085 370.486 77.2256C363.64 72.0427 360.217 64.0571 360.217 53.269Z" fill="url(#paint4_linear_344_6)"/>
<path d="M451.244 83.8482V0H487.625L507.576 48.0285C508.065 49.3722 508.529 50.6775 508.969 51.9444C509.409 53.2114 509.801 54.5551 510.143 55.9756H510.436C510.779 54.5551 511.17 53.2114 511.61 51.9444C512.05 50.6775 512.514 49.3722 513.003 48.0285L532.954 0H569.409V83.8482H543.883V34.7256C543.883 33.4203 543.883 31.9614 543.883 30.3489C543.932 28.7364 544.03 27.2776 544.177 25.9722H543.737C543.443 27.3543 543.052 28.8324 542.563 30.4065C542.074 31.9422 541.585 33.3819 541.096 34.7256L521.659 83.8482H498.114L478.529 34.7256C478.04 33.4203 477.527 31.8654 476.989 30.061C476.451 28.2566 476.109 26.8936 475.962 25.9722H475.595C475.644 26.8552 475.693 28.2182 475.742 30.061C475.84 31.8654 475.889 33.4203 475.889 34.7256V83.8482H451.244Z" fill="url(#paint5_linear_344_6)"/>
<path d="M582.245 83.8482V0H650.9V16.1822H607.11V34.2073H644.445V48.4892H607.11V68.1843H652V83.8482H582.245Z" fill="url(#paint6_linear_344_6)"/>
<defs>
<linearGradient id="paint0_linear_344_6" x1="326" y1="0" x2="326" y2="85" gradientUnits="userSpaceOnUse">
<stop stop-color="#B3B3B3"/>
<stop offset="1" stop-color="#6B9EBB"/>
</linearGradient>
<linearGradient id="paint1_linear_344_6" x1="326" y1="0" x2="326" y2="85" gradientUnits="userSpaceOnUse">
<stop stop-color="#B3B3B3"/>
<stop offset="1" stop-color="#6B9EBB"/>
</linearGradient>
<linearGradient id="paint2_linear_344_6" x1="326" y1="0" x2="326" y2="85" gradientUnits="userSpaceOnUse">
<stop stop-color="#B3B3B3"/>
<stop offset="1" stop-color="#6B9EBB"/>
</linearGradient>
<linearGradient id="paint3_linear_344_6" x1="326" y1="0" x2="326" y2="85" gradientUnits="userSpaceOnUse">
<stop stop-color="#B3B3B3"/>
<stop offset="1" stop-color="#6B9EBB"/>
</linearGradient>
<linearGradient id="paint4_linear_344_6" x1="326" y1="0" x2="326" y2="85" gradientUnits="userSpaceOnUse">
<stop stop-color="#B3B3B3"/>
<stop offset="1" stop-color="#6B9EBB"/>
</linearGradient>
<linearGradient id="paint5_linear_344_6" x1="326" y1="0" x2="326" y2="85" gradientUnits="userSpaceOnUse">
<stop stop-color="#B3B3B3"/>
<stop offset="1" stop-color="#6B9EBB"/>
</linearGradient>
<linearGradient id="paint6_linear_344_6" x1="326" y1="0" x2="326" y2="85" gradientUnits="userSpaceOnUse">
<stop stop-color="#B3B3B3"/>
<stop offset="1" stop-color="#6B9EBB"/>
</linearGradient>
</defs>
</svg>
