<svg  viewBox="0 0 500 500" fill="none" xmlns="http://www.w3.org/2000/svg">
<path d="M105.251 215.151C90.5437 214.742 69.9529 215.559 55 215.559V292.039H76.4079V234.189C76.4079 234.189 95.4463 233.535 102.31 234.352C108.765 235.088 111.135 239.092 111.38 247.426C111.543 256.904 111.38 261.889 111.38 292.039H132.788C132.788 292.039 133.033 257.558 132.788 245.547C132.461 224.22 125.025 215.641 105.251 215.151Z"/>
<path d="M204.283 214.906C183.121 214.906 165.88 232.228 165.88 253.554C165.88 274.881 183.121 292.203 204.283 292.203C225.446 292.203 242.687 274.881 242.687 253.554C242.687 232.228 225.446 214.906 204.283 214.906ZM204.283 273.737C193.171 273.737 184.183 264.667 184.183 253.473C184.183 242.278 193.171 233.209 204.283 233.209C215.396 233.209 224.384 242.278 224.384 253.473C224.384 264.749 215.396 273.737 204.283 273.737Z"/>
<path d="M445 253.554C445 232.228 427.759 214.906 406.596 214.906C385.434 214.906 368.193 232.228 368.193 253.554C368.193 266.056 373.913 276.76 382.819 283.869C389.029 288.771 397.69 292.203 409.293 292.203C414.931 292.203 429.557 290.651 440.097 278.966L431.436 267.363C427.759 270.632 418.526 275.207 411.172 275.207C401.857 275.207 396.219 273.41 392.134 269.569C389.601 267.282 387.803 263.768 386.986 259.438H444.428C444.755 257.476 445 255.597 445 253.554ZM387.15 246.527C389.274 237.458 395.647 230.757 406.515 230.757C417.872 230.757 423.837 237.948 425.798 246.527H387.15Z"/>
<path d="M315.408 207.797H295.39V229.287H274.799V248.08H295.39V270.387H315.408V248.08H335.999V229.287H315.408V207.797Z"/>
</svg>
