<svg  viewBox="0 0 22 22" xmlns="http://www.w3.org/2000/svg">
<path d="M6.276 11.748C6.324 11.568 6.36 11.316 6.36 11.076C6.36 10.524 6.36 4.644 6.36 3.888C6.36 3.432 6.3 3.096 6.3 3H7.404C7.392 3.096 7.344 3.444 7.344 3.9C7.344 4.644 7.344 10.452 7.344 10.812C8.46 10.308 9.936 9.216 10.848 7.86L11.424 8.688C10.38 10.092 8.724 11.316 7.332 12.012C7.128 12.108 7.008 12.216 6.912 12.276L6.276 11.748ZM0.78 11.7C1.8 10.98 2.508 9.912 2.868 8.748C3.228 7.644 3.228 5.256 3.228 3.912C3.228 3.564 3.204 3.3 3.144 3.048H4.248C4.236 3.18 4.188 3.552 4.188 3.9C4.188 5.232 4.152 7.812 3.828 9.012C3.468 10.296 2.7 11.46 1.692 12.3L0.78 11.7Z" />
<path d="M18.736 9.604C19.036 10.036 19.468 10.756 19.708 11.248L19.06 11.536C18.82 11.056 18.424 10.336 18.1 9.88L18.736 9.604ZM20.044 9.124C20.368 9.568 20.824 10.312 21.052 10.756L20.404 11.044C20.152 10.528 19.756 9.844 19.42 9.4L20.044 9.124ZM13.348 10C13.312 10.288 13.276 10.636 13.276 10.972C13.276 11.62 13.276 16.444 13.276 17.308C13.276 17.932 13.54 18.088 14.116 18.196C14.5 18.268 15.112 18.292 15.7 18.292C16.972 18.292 18.808 18.172 19.816 17.908V19.012C18.772 19.168 16.972 19.252 15.664 19.252C14.944 19.252 14.236 19.228 13.732 19.144C12.82 18.976 12.304 18.556 12.304 17.572C12.304 16.42 12.304 11.62 12.304 10.972C12.304 10.684 12.28 10.288 12.232 10H13.348ZM12.832 13.792C14.284 13.48 16.456 12.82 17.848 12.232C18.208 12.064 18.556 11.896 18.904 11.68L19.324 12.64C18.976 12.784 18.544 12.976 18.184 13.12C16.696 13.72 14.32 14.416 12.844 14.788L12.832 13.792Z" />
</svg>
